<svg id="cart" xmlns="http://www.w3.org/2000/svg" width="24" height="24" viewBox="0 0 24 24">
  <g id="Bag" transform="translate(2.5 2)">
    <path id="Bag-2" data-name="Bag" d="M5.449,20C3.38,20,1.881,19.476.993,18.444S-.189,15.855.119,13.812L.88,7.943A4.718,4.718,0,0,1,2.219,5.315a3.392,3.392,0,0,1,2.359-.933h0a4.931,4.931,0,0,1,9.8,0h.072c1.8,0,3.216,1.38,3.705,3.6l.786,6.066a5.391,5.391,0,0,1-1.085,4.329A5.571,5.571,0,0,1,13.546,20ZM2.317,8.167l-.756,5.845c-.247,1.635-.068,2.777.546,3.492s1.678,1.049,3.342,1.049h8.1a4.09,4.09,0,0,0,3.239-1.158,4.125,4.125,0,0,0,.683-3.4l-.743-5.767c-.333-1.5-1.183-2.4-2.273-2.4H4.578C3.436,5.83,2.59,6.7,2.317,8.167Zm10.6-3.785a3.475,3.475,0,0,0-6.868,0Zm-.593,5.582a.724.724,0,0,1-.1-1.441l.1-.006h.044a.724.724,0,0,1,.1,1.441l-.1.006Zm-5.656,0a.724.724,0,0,1-.1-1.441l.1-.006H6.71a.724.724,0,0,1,.1,1.441l-.1.006Z" fill="#200e32"/>
  </g>
</svg>
